<svg xmlns="http://www.w3.org/2000/svg" xmlns:xlink="http://www.w3.org/1999/xlink" width="1361" height="1001" viewBox="0 0 1361 1001" fill="none"><rect x="0" y="0" width="0" height="0" fill="rgba(249, 249, 249, 1)" /><defs><rect id="path_0" x="0" y="0" width="1361" height="1001" /></defs><g opacity="1" transform="translate(0 0)  rotate(0)"><rect fill="#FFFFFF" opacity="0" transform="translate(0 0)  rotate(0)" x="0" y="0" width="1361" height="1001" /><mask id="bg-mask-0" fill="white"><use xlink:href="#path_0"></use></mask><g mask="url(#bg-mask-0)" ><path id="路径 1" fill-rule="evenodd" style="fill:#FFFFFF" opacity="1" d="M698 656C780.67 691 881.48 618 940.69 561.5C972.51 531.13 977.5 509 1026.66 483.46C1041.78 475.61 1068.13 466.99 1097.6 461.72C1127.74 456.33 1149.9 453.94 1171.5 451.5C1272.53 440.1 1375 529 1375 529L1375 -27L14.88 -8.5L14 561.5L101.95 561.5C565 530.5 615.33 621 698 656Z"></path><path  id="路径 1" style="fill:#FFFFFF; opacity:1;" d="M666.606,640.605c-2.37467,-1.34667 -5.92433,-3.38267 -10.649,-6.108c-5.876,-3.38933 -10.39733,-5.97667 -13.564,-7.762c-5.22867,-2.94867 -10.10633,-5.621 -14.633,-8.017c-5.478,-2.90067 -10.83633,-5.60933 -16.075,-8.126c-5.94733,-2.858 -11.91033,-5.55433 -17.889,-8.089c-13.60333,-5.76533 -27.84267,-10.92433 -42.718,-15.477c-16.96333,-5.192 -35.11367,-9.713 -54.451,-13.563c-21.37667,-4.25667 -44.431,-7.746 -69.163,-10.468c-26.84333,-2.95533 -55.79267,-5.01833 -86.848,-6.189c-33.30267,-1.256 -69.137,-1.498 -107.503,-0.726c-40.70867,0.81667 -84.41867,2.78967 -131.13,5.919l-0.016,0.001h-88.4678l0.8816,-570.99326l1361.1192,-18.51354v557.6028l-0.83,-0.718c-0.26,-0.23 -0.65,-0.56 -1.17,-0.99c-1.03333,-0.866 -2.17,-1.798 -3.41,-2.796c-4.00667,-3.216 -8.33,-6.51633 -12.97,-9.901c-6.52667,-4.75667 -13.24,-9.356 -20.14,-13.798c-8.63333,-5.556 -17.32667,-10.71567 -26.08,-15.479c-10.34,-5.62333 -20.61,-10.604 -30.81,-14.942c-11.65333,-4.95667 -23.09,-9.02033 -34.31,-12.191c-12.54667,-3.54533 -24.74,-5.95433 -36.58,-7.227c-13.03333,-1.40067 -25.58,-1.41967 -37.64,-0.057c-0.68667,0.07667 -1.79333,0.20133 -3.32,0.374c-6.92667,0.78067 -12.15333,1.37967 -15.68,1.797c-5.96,0.70467 -11.49,1.39667 -16.59,2.076c-12.83333,1.71 -25.59333,3.69933 -38.28,5.968c-7.18667,1.28533 -14.30667,2.78867 -21.36,4.51c-6.72,1.64 -13.19667,3.43267 -19.43,5.378c-6.02,1.87733 -11.6,3.83 -16.74,5.858c-5.04667,1.98933 -9.47,3.97133 -13.27,5.946c-7.90667,4.106 -15.03333,8.323 -21.38,12.651c-5.71133,3.88933 -11.011,8.02067 -15.899,12.394c-2.19667,1.96667 -4.37333,4.03633 -6.53,6.209c-1.92267,1.938 -3.89867,4.03033 -5.928,6.277c-1.69467,1.87667 -3.55533,4.006 -5.582,6.388c-1.218,1.432 -3.04867,3.61333 -5.492,6.544c-2.40133,2.87933 -4.22067,5.04833 -5.458,6.507c-2.084,2.45533 -4.031,4.69767 -5.841,6.727c-4.55667,5.11133 -9.13833,9.865 -13.745,14.261c-7.88933,7.52667 -15.90833,14.772 -24.057,21.736c-9.06467,7.746 -18.15233,15.02133 -27.263,21.826c-10.012,7.478 -19.93533,14.29733 -29.77,20.458c-10.70533,6.70467 -21.233,12.58133 -31.583,17.63c-11.16733,5.44667 -22.068,9.894 -32.702,13.342c-11.39733,3.696 -22.43933,6.225 -33.126,7.587c-11.39267,1.45333 -22.34467,1.57367 -32.856,0.361c-11.14867,-1.28467 -21.773,-4.06533 -31.873,-8.342c-6.32067,-2.67533 -13.25833,-6.04267 -20.813,-10.102c-3.068,-1.64867 -6.53,-3.56633 -10.386,-5.753zM795.352,655.902c10.588,-3.43333 21.445,-7.863 32.571,-13.289c10.318,-5.03133 20.815,-10.891 31.491,-17.579c9.81267,-6.14667 19.71367,-12.95033 29.703,-20.411c9.09267,-6.79133 18.163,-14.053 27.211,-21.785c8.13533,-6.952 16.141,-14.18533 24.017,-21.7c4.58667,-4.378 9.14967,-9.112 13.689,-14.202c1.80333,-2.022 3.745,-4.25833 5.825,-6.709c1.23667,-1.458 3.054,-3.625 5.452,-6.501c2.446,-2.934 4.27867,-5.11767 5.498,-6.551c2.03267,-2.38933 3.9,-4.526 5.602,-6.41c2.04,-2.25867 4.02667,-4.36233 5.96,-6.311c2.17,-2.18733 4.36133,-4.27067 6.574,-6.25c4.91933,-4.40333 10.251,-8.562 15.995,-12.476c6.38667,-4.34933 13.55,-8.58667 21.49,-12.712c3.83333,-1.99 8.29,-3.98633 13.37,-5.989c5.16,-2.036 10.76,-3.99667 16.8,-5.882c6.25333,-1.95133 12.75,-3.74967 19.49,-5.395c7.08,-1.72667 14.22,-3.234 21.42,-4.522c12.7,-2.272 25.47667,-4.26367 38.33,-5.975c5.1,-0.68067 10.63333,-1.37333 16.6,-2.078c3.53333,-0.418 8.76333,-1.01733 15.69,-1.798c1.62,-0.18267 2.72333,-0.30733 3.31,-0.374c12.14,-1.37067 24.76,-1.35167 37.86,0.057c11.9,1.278 24.15,3.69767 36.75,7.259c11.26667,3.18333 22.74333,7.261 34.43,12.233c10.23333,4.35133 20.53333,9.346 30.9,14.984c8.77333,4.774 17.48667,9.946 26.14,15.516c6.91333,4.452 13.64333,9.06233 20.19,13.831c4.65333,3.39467 8.98667,6.70433 13,9.929c1.24667,1.00267 2.39333,1.939 3.44,2.809c0.12667,0.106 0.24333,0.205 0.35,0.297v-554.4112l-1359.1208,18.48646l-0.8784,569.00674h87.4322c46.71933,-3.13 90.43933,-5.10333 131.16,-5.92c38.38467,-0.772 74.23833,-0.52967 107.561,0.727c31.07933,1.17533 60.05233,3.24 86.919,6.194c24.76133,2.726 47.84433,6.21967 69.249,10.481c19.37,3.85867 37.553,8.388 54.549,13.588c14.90867,4.56133 29.18033,9.73233 42.815,15.513c5.99467,2.54067 11.972,5.243 17.932,8.107c5.25067,2.52333 10.62067,5.238 16.11,8.144c4.53533,2.40067 9.42067,5.07733 14.656,8.03c3.16533,1.78467 7.68933,4.37367 13.572,7.767c4.72067,2.72333 8.26867,4.758 10.644,6.104c3.85,2.184 7.305,4.098 10.365,5.742c7.528,4.04533 14.438,7.39967 20.73,10.063c19.47933,8.24667 40.88333,10.883 64.212,7.909c10.62467,-1.354 21.60633,-3.86967 32.945,-7.547z"></path></g></g></svg>